HIERARCHY
ROOT Hips
{
	OFFSET 0.000000 0.000000 0.000000
	CHANNELS 6 Xposition Yposition Zposition Xrotation Yrotation Zrotation
	JOINT LeftUpLeg_virtual
	{
		OFFSET 0.000000 0.000000 0.000000
		CHANNELS 3 Xrotation Yrotation Zrotation
		JOINT LeftUpLeg
		{
			OFFSET 13.026900 -6.336304 -1.092800
			CHANNELS 3 Xrotation Yrotation Zrotation
			JOINT LeftLeg
			{
				OFFSET 0.524474 -46.096886 9.782700
				CHANNELS 3 Xrotation Yrotation Zrotation
				JOINT LeftFoot
				{
					OFFSET -0.524474 -53.427422 -12.948200
					CHANNELS 3 Xrotation Yrotation Zrotation
					JOINT LeftToeBase
					{
						OFFSET 0.192200 -14.009700 16.364100
						CHANNELS 3 Xrotation Yrotation Zrotation
						JOINT LeftToe_End
						{
							OFFSET -1.784700 -0.561700 9.474800
							CHANNELS 3 Xrotation Yrotation Zrotation
							End Site
							{
								OFFSET 0 0 0
							}
						}
					}
				}
			}
		}
	}
	JOINT RightUpLeg_virtual
	{
		OFFSET 0.000000 0.000000 0.000000
		CHANNELS 3 Xrotation Yrotation Zrotation
		JOINT RightUpLeg
		{
			OFFSET -12.883000 -6.336304 -1.092800
			CHANNELS 3 Xrotation Yrotation Zrotation
			JOINT RightLeg
			{
				OFFSET -0.524587 -46.096825 9.782800
				CHANNELS 3 Xrotation Yrotation Zrotation
				JOINT RightFoot
				{
					OFFSET 0.524587 -53.427383 -12.948300
					CHANNELS 3 Xrotation Yrotation Zrotation
					JOINT RightToeBase
					{
						OFFSET -0.192200 -14.009700 16.364100
						CHANNELS 3 Xrotation Yrotation Zrotation
						JOINT RightToe_End
						{
							OFFSET 1.784700 -0.561700 9.474800
							CHANNELS 3 Xrotation Yrotation Zrotation
							End Site
							{
								OFFSET 0 0 0
							}
						}
					}
				}
			}
		}
	}
	JOINT Spine_virtual
	{
		OFFSET 0.000000 0.000000 0.000000
		CHANNELS 3 Xrotation Yrotation Zrotation
		JOINT Spine
		{
			OFFSET 0.072000 7.257294 -0.789700
			CHANNELS 3 Xrotation Yrotation Zrotation
			JOINT Spine1
			{
				OFFSET 0.000000 12.508769 -0.658067
				CHANNELS 3 Xrotation Yrotation Zrotation
				JOINT Spine1_split
				{
					OFFSET 0.000000 12.508769 -0.658067
					CHANNELS 3 Xrotation Yrotation Zrotation
					JOINT Spine2
					{
						OFFSET 0.000000 12.508769 -0.658067
						CHANNELS 3 Xrotation Yrotation Zrotation
						JOINT Neck_virtual
						{
							OFFSET 0.000000 0.000000 0.000000
							CHANNELS 3 Xrotation Yrotation Zrotation
							JOINT Neck
							{
								OFFSET 0.000000 14.033295 7.520400
								CHANNELS 3 Xrotation Yrotation Zrotation
								JOINT Head
								{
									OFFSET 0.000000 8.198502 5.703100
									CHANNELS 3 Xrotation Yrotation Zrotation
									JOINT HeadTop_End
									{
										OFFSET 0.000000 17.760803 13.332701
										CHANNELS 3 Xrotation Yrotation Zrotation
										End Site
										{
											OFFSET 0 0 0
										}
									}
								}
							}
						}
						JOINT LeftShoulder_virtual
						{
							OFFSET 0.000000 0.000000 0.000000
							CHANNELS 3 Xrotation Yrotation Zrotation
							JOINT LeftShoulder
							{
								OFFSET 6.292450 5.785301 -0.669000
								CHANNELS 3 Xrotation Yrotation Zrotation
								JOINT LeftShoulder_split
								{
									OFFSET 6.292450 5.785301 -0.669000
									CHANNELS 3 Xrotation Yrotation Zrotation
									JOINT LeftArm
									{
										OFFSET 13.907140 -6.093903 1.965100
										CHANNELS 3 Xrotation Yrotation Zrotation
										JOINT LeftForeArm
										{
											OFFSET 34.140198 0.000000 0.000000
											CHANNELS 3 Xrotation Yrotation Zrotation
											JOINT LeftHand
											{
												OFFSET 40.960209 0.000000 0.000000
												CHANNELS 3 Xrotation Yrotation Zrotation
												End Site
												{
													OFFSET 0 0 0
												}
											}
										}
									}
								}
							}
						}
						JOINT RightShoulder_virtual
						{
							OFFSET 0.000000 0.000000 0.000000
							CHANNELS 3 Xrotation Yrotation Zrotation
							JOINT RightShoulder
							{
								OFFSET -6.292450 5.785301 -0.669000
								CHANNELS 3 Xrotation Yrotation Zrotation
								JOINT RightShoulder_split
								{
									OFFSET -6.292450 5.785301 -0.669000
									CHANNELS 3 Xrotation Yrotation Zrotation
									JOINT RightArm
									{
										OFFSET -13.907140 -6.093903 1.965100
										CHANNELS 3 Xrotation Yrotation Zrotation
										JOINT RightForeArm
										{
											OFFSET -34.140198 0.000000 0.000000
											CHANNELS 3 Xrotation Yrotation Zrotation
											JOINT RightHand
											{
												OFFSET -40.960209 0.000000 0.000000
												CHANNELS 3 Xrotation Yrotation Zrotation
												End Site
												{
													OFFSET 0 0 0
												}
											}
										}
									}
								}
							}
						}
					}
				}
			}
		}
	}
}
MOTION
Frames: 11
Frame Time: 0.03333333
-0.500549 111.675117 0.357899 0.000000 0.000000 0.000000 1.363718 -27.090139 1.320091 -29.267214 25.629581 14.402094 26.075314 8.569477 10.325217 -0.224364 0.611415 -12.297902 -0.000064 0.000003 0.000003 0.000000 0.000000 0.000000 1.363718 -27.090139 1.320091 -20.220767 -16.966630 -10.121318 30.375228 -0.967330 -7.147349 -12.219623 -1.706602 10.695219 -0.000029 -0.000002 0.000001 0.000000 0.000000 0.000000 1.363718 -27.090139 1.320091 3.654601 -1.993796 0.527192 1.363086 -0.820709 0.173835 0.000000 0.000000 0.000000 0.000000 0.000000 0.000000 1.366612 -0.813807 0.178820 -1.889905 4.550428 2.461103 17.045039 24.869854 -12.698042 0.000000 0.000000 0.000000 1.366612 -0.813807 0.178820 -0.311617 3.473789 4.919201 0.000000 0.000000 0.000000 -51.541793 -1.692567 -52.291901 0.001236 -84.594482 0.001193 0.000000 0.000000 0.000000 1.366612 -0.813807 0.178820 -1.129696 -10.661991 8.143390 0.000000 0.000000 0.000000 -61.066952 65.570431 77.632538 0.000096 81.745883 -0.000061 0.000000 0.000000 0.000000 
-0.499881 111.678650 0.352955 0.000000 0.000000 0.000000 1.364445 -27.078406 1.306161 -29.304862 25.695872 14.435506 26.079261 8.488215 10.327126 -0.224630 0.609756 -12.270898 -0.000064 0.000004 0.000003 0.000000 0.000000 0.000000 1.364445 -27.078406 1.306161 -20.203872 -16.956634 -10.092506 30.356301 -1.014362 -7.159288 -12.208919 -1.708170 10.711767 -0.000029 -0.000003 0.000001 0.000000 0.000000 0.000000 1.364445 -27.078406 1.306161 3.643222 -1.993570 0.529089 1.361890 -0.820747 0.173847 0.000000 0.000000 0.000000 0.000000 0.000000 0.000000 1.365414 -0.813851 0.178832 -1.873934 4.545139 2.494240 17.054407 24.886841 -12.705631 0.000000 0.000000 0.000000 1.365414 -0.813851 0.178832 -0.307941 3.431331 4.918806 0.000000 0.000000 0.000000 -51.600843 -1.706252 -52.314823 0.000787 -84.572413 0.000808 0.000000 0.000000 0.000000 1.365414 -0.813851 0.178832 -1.125350 -10.703794 8.253321 0.000000 0.000000 0.000000 -60.997988 65.595907 77.553567 -0.000276 81.773210 0.000255 0.000000 0.000000 0.000000 
-0.501042 111.681503 0.348274 0.000000 0.000000 0.000000 1.365199 -27.066744 1.292065 -29.348797 25.776280 14.475520 26.086642 8.389968 10.328283 -0.227170 0.608005 -12.240115 -0.000064 0.000004 0.000003 0.000000 0.000000 0.000000 1.365199 -27.066744 1.292065 -20.182171 -16.920496 -10.072423 30.340243 -1.071885 -7.143663 -12.201271 -1.708405 10.721578 -0.000029 -0.000003 0.000001 0.000000 0.000000 0.000000 1.365199 -27.066744 1.292065 3.629726 -1.988461 0.531181 1.357169 -0.820010 0.174018 0.000000 0.000000 0.000000 0.000000 0.000000 0.000000 1.360708 -0.813098 0.179007 -1.855648 4.538360 2.513963 17.052542 24.893854 -12.712151 0.000000 0.000000 0.000000 1.360708 -0.813098 0.179007 -0.305924 3.446128 4.864929 0.000000 0.000000 0.000000 -51.651458 -1.736582 -52.386697 -0.000891 -84.533952 -0.000877 0.000000 0.000000 0.000000 1.360708 -0.813098 0.179007 -1.121531 -10.736596 8.342951 0.000000 0.000000 0.000000 -60.928450 65.648513 77.475307 0.000330 81.786106 -0.000336 0.000000 0.000000 0.000000 
-0.502411 111.683380 0.341068 0.000000 0.000000 0.000000 1.365982 -27.054991 1.285248 -29.394030 25.871585 14.512226 26.093343 8.278324 10.328520 -0.228784 0.606083 -12.204521 -0.000064 0.000004 0.000003 0.000000 0.000000 0.000000 1.365982 -27.054991 1.285248 -20.167062 -16.877876 -10.065414 30.332358 -1.116653 -7.117396 -12.197442 -1.709777 10.723604 -0.000029 -0.000005 0.000001 0.000000 0.000000 0.000000 1.365982 -27.054991 1.285248 3.614911 -1.987110 0.543689 1.351547 -0.820324 0.174424 0.000000 0.000000 0.000000 0.000000 0.000000 0.000000 1.355109 -0.813378 0.179412 -1.838433 4.533473 2.524286 17.045502 24.894349 -12.718645 0.000000 0.000000 0.000000 1.355109 -0.813378 0.179412 -0.306346 3.486761 4.816126 0.000000 0.000000 0.000000 -51.680121 -1.764611 -52.499252 0.001787 -84.496789 0.001790 0.000000 0.000000 0.000000 1.355109 -0.813378 0.179412 -1.118342 -10.761781 8.413395 0.000000 0.000000 0.000000 -60.855893 65.716843 77.395742 0.000185 81.793646 -0.000139 0.000000 0.000000 0.000000 
-0.506195 111.683945 0.329594 0.000000 0.000000 0.000000 1.364962 -27.040681 1.279327 -29.442702 25.973237 14.551267 26.100805 8.157379 10.328462 -0.227907 0.603892 -12.166654 -0.000064 0.000004 0.000003 0.000000 0.000000 0.000000 1.364962 -27.040681 1.279327 -20.156783 -16.848562 -10.058052 30.330514 -1.141697 -7.097481 -12.196640 -1.714596 10.719426 -0.000029 -0.000005 0.000001 0.000000 0.000000 0.000000 1.364962 -27.040681 1.279327 3.598609 -1.988089 0.556282 1.345152 -0.821080 0.175005 0.000000 0.000000 0.000000 0.000000 0.000000 0.000000 1.348744 -0.814098 0.179996 -1.825661 4.530055 2.524958 17.037852 24.884882 -12.722983 0.000000 0.000000 0.000000 1.348744 -0.814098 0.179996 -0.308430 3.536054 4.783768 0.000000 0.000000 0.000000 -51.684967 -1.749054 -52.626259 -0.000891 -84.479229 -0.000928 0.000000 0.000000 0.000000 1.348744 -0.814098 0.179996 -1.116201 -10.778786 8.460477 0.000000 0.000000 0.000000 -60.775214 65.791551 77.311369 0.000396 81.803912 -0.000409 0.000000 0.000000 0.000000 
-0.512959 111.680984 0.312698 0.000000 0.000000 0.000000 1.363991 -27.021516 1.271819 -29.492169 26.047423 14.587285 26.112093 8.057559 10.330029 -0.223045 0.601861 -12.137168 -0.000064 0.000004 0.000003 0.000000 0.000000 0.000000 1.363991 -27.021516 1.271819 -20.150955 -16.813935 -10.053458 30.339335 -1.171796 -7.065595 -12.200578 -1.720339 10.708873 -0.000029 -0.000003 0.000001 0.000000 0.000000 0.000000 1.363991 -27.021516 1.271819 3.582097 -1.990152 0.566651 1.338693 -0.821756 0.175739 0.000000 0.000000 0.000000 0.000000 0.000000 0.000000 1.342320 -0.814760 0.180733 -1.821599 4.526733 2.518852 17.033899 24.862198 -12.722600 0.000000 0.000000 0.000000 1.342320 -0.814760 0.180733 -0.315147 3.564103 4.793343 0.000000 0.000000 0.000000 -51.658169 -1.658152 -52.746559 0.001072 -84.502035 0.001036 0.000000 0.000000 0.000000 1.342320 -0.814760 0.180733 -1.115420 -10.789844 8.485615 0.000000 0.000000 0.000000 -60.679107 65.859976 77.214558 0.000286 81.828316 -0.000220 0.000000 0.000000 0.000000 
-0.520759 111.673264 0.289661 0.000000 0.000000 0.000000 1.376830 -26.997031 1.271863 -29.544950 26.066744 14.608576 26.125926 8.006821 10.330986 -0.211609 0.600895 -12.122133 -0.000064 0.000004 0.000003 0.000000 0.000000 0.000000 1.376830 -26.997031 1.271863 -20.163007 -16.751357 -10.063530 30.362318 -1.227720 -7.000337 -12.207785 -1.726658 10.690573 -0.000029 -0.000005 0.000001 0.000000 0.000000 0.000000 1.376830 -26.997031 1.271863 3.568573 -1.991096 0.571603 1.333545 -0.821489 0.176630 0.000000 0.000000 0.000000 0.000000 0.000000 0.000000 1.337216 -0.814481 0.181626 -1.830263 4.520995 2.511810 17.035274 24.823942 -12.714675 0.000000 0.000000 0.000000 1.337216 -0.814481 0.181626 -0.314394 3.539090 4.865854 0.000000 0.000000 0.000000 -51.600676 -1.471846 -52.837684 -0.000271 -84.581955 -0.000264 0.000000 0.000000 0.000000 1.337216 -0.814481 0.181626 -1.116075 -10.800639 8.498421 0.000000 0.000000 0.000000 -60.559729 65.910963 77.093923 0.000366 81.879160 -0.000350 0.000000 0.000000 0.000000 
-0.527437 111.662148 0.260593 0.000000 0.000000 0.000000 1.400765 -26.965348 1.281677 -29.601623 26.054312 14.614312 26.139691 7.982846 10.331942 -0.193972 0.600438 -12.113089 -0.000064 0.000004 0.000003 0.000000 0.000000 0.000000 1.400765 -26.965348 1.281677 -20.197453 -16.692887 -10.083833 30.397248 -1.288204 -6.932336 -12.216930 -1.731664 10.670425 -0.000029 -0.000005 0.000001 0.000000 0.000000 0.000000 1.400765 -26.965348 1.281677 3.562775 -1.987722 0.568642 1.331582 -0.819146 0.177674 0.000000 0.000000 0.000000 0.000000 0.000000 0.000000 1.335284 -0.812100 0.182675 -1.854310 4.509888 2.511306 17.039514 24.769193 -12.696491 0.000000 0.000000 0.000000 1.335284 -0.812100 0.182675 -0.305336 3.438402 5.008699 0.000000 0.000000 0.000000 -51.524922 -1.193435 -52.882555 0.001069 -84.725082 0.001044 0.000000 0.000000 0.000000 1.335284 -0.812100 0.182675 -1.117907 -10.820041 8.517155 0.000000 0.000000 0.000000 -60.410230 65.940292 76.936029 0.000695 81.967693 -0.000710 0.000000 0.000000 0.000000 
-0.531195 111.648956 0.228008 0.000000 0.000000 0.000000 1.430702 -26.922058 1.293937 -29.680177 26.063706 14.624470 26.160687 7.925750 10.333354 -0.177397 0.599148 -12.090957 -0.000064 0.000004 0.000003 0.000000 0.000000 0.000000 1.430702 -26.922058 1.293937 -20.251760 -16.693413 -10.093795 30.434374 -1.321224 -6.912613 -12.225338 -1.733942 10.659098 -0.000029 -0.000003 0.000001 0.000000 0.000000 0.000000 1.430702 -26.922058 1.293937 3.569604 -1.976705 0.557335 1.334603 -0.813526 0.178826 0.000000 0.000000 0.000000 0.000000 0.000000 0.000000 1.338315 -0.806440 0.183830 -1.894090 4.491007 2.524220 17.040796 24.699528 -12.666028 0.000000 0.000000 0.000000 1.338315 -0.806440 0.183830 -0.286527 3.261235 5.210340 0.000000 0.000000 0.000000 -51.453164 -0.856754 -52.877176 0.000963 -84.922788 0.000957 0.000000 0.000000 0.000000 1.338315 -0.806440 0.183830 -1.120268 -10.858052 8.565157 0.000000 0.000000 0.000000 -60.226641 65.952669 76.729170 0.000380 82.100219 -0.000365 0.000000 0.000000 0.000000 
-0.529304 111.632713 0.197266 0.000000 0.000000 0.000000 1.458141 -26.868364 1.296069 -29.789296 26.117412 14.657635 26.201982 7.810163 10.334444 -0.172244 0.596168 -12.047649 -0.000064 0.000004 0.000003 0.000000 0.000000 0.000000 1.458141 -26.868364 1.296069 -20.311313 -16.752238 -10.084662 30.469863 -1.329592 -6.943111 -12.232866 -1.734037 10.661431 -0.000029 -0.000005 0.000001 0.000000 0.000000 0.000000 1.458141 -26.868364 1.296069 3.591904 -1.955819 0.537616 1.343582 -0.803822 0.173139 0.000000 0.000000 0.000000 0.000000 0.000000 0.000000 1.347278 -0.796694 0.178116 -1.947168 4.463457 2.554409 17.032591 24.619820 -12.622465 0.000000 0.000000 0.000000 1.347278 -0.796694 0.178116 -0.259405 3.031890 5.441695 0.000000 0.000000 0.000000 -51.410667 -0.521221 -52.831336 0.000101 -85.151436 0.000068 0.000000 0.000000 0.000000 1.347278 -0.796694 0.178116 -1.122136 -10.922166 8.663177 0.000000 0.000000 0.000000 -60.009113 65.959041 76.468209 0.000260 82.275543 -0.000320 0.000000 0.000000 0.000000 
-0.517918 111.611626 0.173092 0.000000 0.000000 0.000000 1.475956 -26.819141 1.280460 -29.918732 26.197775 14.717415 26.271474 7.665801 10.335196 -0.185838 0.591942 -11.992690 -0.000064 0.000004 0.000003 0.000000 0.000000 0.000000 1.475956 -26.819141 1.280460 -20.359915 -16.810588 -10.067191 30.506825 -1.339394 -6.974800 -12.239502 -1.734318 10.670875 -0.000029 -0.000005 0.000001 0.000000 0.000000 0.000000 1.475956 -26.819141 1.280460 3.628783 -1.924698 0.510092 1.358093 -0.789911 0.161056 0.000000 0.000000 0.000000 0.000000 0.000000 0.000000 1.361746 -0.782753 0.165955 -2.008644 4.428782 2.601001 17.010181 24.537745 -12.566045 0.000000 0.000000 0.000000 1.361746 -0.782753 0.165955 -0.228630 2.792624 5.664529 0.000000 0.000000 0.000000 -51.417121 -0.255158 -52.764960 0.000622 -85.377973 0.000620 0.000000 0.000000 0.000000 1.361746 -0.782753 0.165955 -1.122445 -11.013781 8.820716 0.000000 0.000000 0.000000 -59.762461 65.969437 76.159205 0.000816 82.484301 -0.000773 0.000000 0.000000 0.000000 
